<svg width="17" height="16" viewBox="0 0 17 16" fill="none" xmlns="http://www.w3.org/2000/svg">
<path fill-rule="evenodd" clip-rule="evenodd" d="M8.5 16C12.9183 16 16.5 12.4183 16.5 8C16.5 3.58172 12.9183 0 8.5 0C4.08172 0 0.5 3.58172 0.5 8C0.5 12.4183 4.08172 16 8.5 16ZM12.3948 6.49728C12.6694 6.1872 12.6407 5.7132 12.3306 5.43856C12.0205 5.16392 11.5465 5.19265 11.2719 5.50272L7.68066 9.55736L5.71041 7.48344C5.42512 7.18313 4.95041 7.17096 4.6501 7.45625C4.3498 7.74154 4.33763 8.21626 4.62292 8.51656L7.15627 11.1832C7.301 11.3356 7.503 11.4202 7.7131 11.4166C7.92321 11.4129 8.12213 11.3212 8.26146 11.1639L12.3948 6.49728Z" fill="#26DA5F"/>
</svg>
